#N canvas 1500 518 941 502 10;
#X obj 45 148 + 1;
#X obj 201 229 loadbang;
#X obj 123 284 mtof;
#X obj 24 348 osc~;
#X obj 212 316 s note;
#X obj 65 84 rc-notein;
#X obj 18 252 stripnote;
#X floatatom 97 126 5 0 0 0 - - -, f 5;
#X floatatom 149 128 5 0 0 0 - - -, f 5;
#X floatatom 192 117 5 0 0 0 - - -, f 5;
#X obj 82 48 bng 15 250 50 0 empty empty empty 17 7 0 10 -262144 -1
-1;
#X obj 51 306 select 0 1;
#X obj 37 386 select 0 1, f 14;
#X obj 23 440 throw~ Master_left;
#X obj 189 442 throw~ Master_right;
#X obj 294 87 send mididata;
#X obj 213 10 receive midiIn;
#X connect 2 0 4 0;
#X connect 2 0 11 0;
#X connect 3 0 12 0;
#X connect 5 0 7 0;
#X connect 5 0 2 0;
#X connect 5 0 0 0;
#X connect 5 1 8 0;
#X connect 5 2 9 0;
#X connect 6 0 2 0;
#X connect 10 0 5 0;
#X connect 11 1 3 0;
#X connect 11 2 3 0;
#X connect 12 2 13 0;
#X connect 12 2 14 0;
#X connect 16 0 5 0;
#X connect 16 0 15 0;
